<?xml version="1.0" encoding="UTF-8" standalone="no"?>
<svg width="412px" height="53px" viewBox="0 0 412 53" version="1.1" xmlns="http://www.w3.org/2000/svg" xmlns:xlink="http://www.w3.org/1999/xlink">
    <!-- Generator: Sketch 40.2 (33826) - http://www.bohemiancoding.com/sketch -->
    <title>Page 1 Copy 2</title>
    <desc>Created with Sketch.</desc>
    <defs>
        <polygon id="path-1" points="2.15679456e-20 0.39818355 2.15679456e-20 51.9858222 54.986812 51.9858222 54.986812 0.39818355 0 0.39818355"></polygon>
        <polygon id="path-3" points="38.617725 33.9631104 38.617725 0.639368557 0.341839913 0.639368557 0.341839913 33.9631104 38.617725 33.9631104"></polygon>
    </defs>
    <g id="Page-1" stroke="none" stroke-width="1" fill="none" fill-rule="evenodd">
        <g id="Article-Stuff-2-Copy-25" transform="translate(-142.000000, -96.000000)">
            <g id="Page-1-Copy-2" transform="translate(142.000000, 96.000000)">
                <g id="Group-3" transform="translate(0.000000, 0.322648)">
                    <mask id="mask-2" fill="white">
                        <use xlink:href="#path-1"></use>
                    </mask>
                    <g id="Clip-2"></g>
                    <path d="M54.986812,0.39818355 L35.8888144,0.39818355 L35.8888144,2.1604121 C44.3242076,2.24051339 44.8812094,5.52466659 44.8812094,9.77083638 L44.8812094,40.2918338 L15.0394443,0.39818355 L0.716542928,0.39818355 L0.716542928,2.1604121 C7.95676958,2.1604121 8.51456702,2.88132377 8.51456702,13.0549896 L8.51456702,40.5305357 C8.51456702,45.0178103 8.67371037,48.6223687 -0.000397858377,49.0228752 L-0.000397858377,50.7843028 L19.6553971,50.7843028 L19.6553971,49.0228752 C11.5374949,48.7817703 10.4242872,45.8188233 10.4242872,40.5305357 L10.4242872,4.64355232 L45.6769261,51.9858222 L46.7901338,51.9858222 L46.7901338,10.3315455 C46.7901338,5.6055689 47.2683596,2.88132377 54.986812,2.1604121 L54.986812,0.39818355 Z" id="Fill-1" fill="#ED1F24" mask="url(#mask-2)"></path>
                </g>
                <path d="M71.2166486,50.4673419 C63.9756262,50.4673419 60.7131876,45.5002605 60.7131876,35.2464934 C60.7131876,26.5154519 63.1799095,19.7060406 71.2166486,19.7060406 C79.4928984,19.7060406 81.800477,26.6748535 81.800477,35.3265947 C81.800477,45.4201592 78.5380383,50.4673419 71.2166486,50.4673419 M71.2166486,17.7836095 C61.7476193,17.7836095 54.2670862,25.0728276 54.2670862,35.0061895 C54.2670862,46.8611815 63.0199704,52.388171 71.2166486,52.388171 C79.7316135,52.388171 88.2465783,46.460675 88.2465783,35.0870918 C88.2465783,24.913426 80.6069019,17.7836095 71.2166486,17.7836095" id="Fill-4" fill="#F00000"></path>
                <path d="M114.266198,17.7834493 C110.207246,17.7834493 104.478086,20.2665895 102.011364,26.1948865 C102.011364,21.6283116 101.294423,19.06507 100.896565,17.7834493 L100.339563,17.9436519 C99.0664163,18.3441584 94.9286893,19.6257791 91.3471682,20.1063869 L91.3471682,21.8686154 C96.8384094,21.8686154 96.8384094,22.1898217 96.8384094,31.0810657 L96.8384094,40.1333133 C96.8384094,49.0245573 96.8384094,49.3457636 91.3471682,49.3457636 L91.3471682,51.1071911 L108.217159,51.1071911 L108.217159,49.3457636 L107.103951,49.3457636 C102.409222,49.3457636 102.409222,48.3036457 102.409222,40.1333133 L102.409222,32.6029903 C102.409222,24.431857 108.615017,20.5869947 111.79868,20.5869947 C113.628828,20.5869947 114.266198,22.1089193 114.583689,22.9908346 C115.061914,24.3525567 115.937203,25.5540762 117.68778,25.5540762 C119.358785,25.5540762 120.393216,24.1122528 120.393216,22.6704294 C120.393216,20.7471973 118.403129,17.7834493 114.266198,17.7834493" id="Fill-6" fill="#F00000"></path>
                <path d="M138.056855,49.6663289 C133.282555,49.6663289 133.282555,44.6191462 133.282555,40.2135748 L133.282555,20.8274588 L142.910727,20.8274588 L142.910727,19.0652302 L133.282555,19.0652302 L133.282555,9.05176703 L132.008612,9.05176703 C130.815037,16.58209 126.598534,18.9050276 123.096585,19.0652302 L123.096585,20.8274588 L127.711742,20.8274588 L127.711742,41.5744959 C127.711742,46.3012734 128.666602,49.2658225 130.735465,50.8678484 C132.008612,51.9083643 133.759985,52.388171 135.987992,52.388171 C136.544993,52.388171 141.63758,52.388171 144.105098,47.1815867 L142.910727,46.460675 C142.194582,47.5027929 140.762292,49.6663289 138.056855,49.6663289" id="Fill-8" fill="#F00000"></path>
                <path d="M180.230638,40.1331531 L180.230638,28.8380691 C180.230638,21.5480501 176.649117,17.7832891 169.567238,17.7832891 C165.428715,17.7832891 161.927562,20.186328 157.948978,24.4316968 L157.948978,0 L157.391976,0 C154.845683,0.961215571 150.468445,1.68212725 147.206006,1.68212725 L147.206006,3.4443558 C152.458532,3.4443558 152.458532,5.28668564 152.458532,10.8945775 L152.458532,40.1331531 C152.458532,49.0251982 152.458532,49.3456033 146.887719,49.3456033 L146.887719,51.1070309 L163.041565,51.1070309 L163.041565,49.3456033 C158.02855,49.3456033 158.02855,48.703992 158.02855,40.1331531 L158.02855,27.2360432 C160.574843,23.95189 164.075997,20.186328 167.73709,20.186328 C172.431818,20.186328 174.659825,22.349063 174.659825,29.7992847 L174.659825,40.1331531 C174.659825,48.9450969 174.659825,49.3456033 169.16938,49.3456033 L169.16938,51.1070309 L185.641512,51.1070309 L185.641512,49.3456033 C180.230638,49.3456033 180.230638,48.9450969 180.230638,40.1331531" id="Fill-10" fill="#F00000"></path>
                <path d="M202.747671,19.545838 C209.591631,19.545838 210.625267,25.9547428 210.704839,29.7195038 L193.676501,29.7195038 C194.074359,25.3139325 196.461509,19.545838 202.747671,19.545838 L202.747671,19.545838 Z M216.67351,31.3215298 C216.434795,23.7111055 211.89921,17.7836095 202.906815,17.7836095 C193.357418,17.7836095 186.912113,25.3932327 186.912113,35.3265947 C186.912113,45.659662 194.312278,52.388171 203.225102,52.388171 C209.670407,52.388171 214.365932,49.1841191 216.355224,43.8982345 L214.525075,43.8982345 C212.297068,48.3038059 208.715547,50.3063383 204.259533,50.3063383 C196.540285,50.3063383 193.357418,43.8982345 193.357418,33.7245687 C193.357418,33.1638596 193.43699,32.0424415 193.516562,31.3215298 L216.67351,31.3215298 Z" id="Fill-12" fill="#F00000"></path>
                <path d="M270.013746,31.641935 C264.204218,29.5593012 261.180494,28.1967782 261.180494,24.4320172 C261.180494,22.1090795 262.931867,19.545838 268.104025,19.545838 C273.753614,19.545838 276.936481,24.5922198 277.653422,28.2768795 L279.084916,28.2768795 L279.084916,18.3443186 L277.653422,18.3443186 C277.57385,18.5045212 276.778134,20.4269523 276.140765,21.147864 C274.310616,19.3055341 271.605179,17.7836095 267.86531,17.7836095 C260.70386,17.7836095 257.67934,22.5896873 257.67934,26.6748535 C257.67934,32.2827453 260.942575,34.605683 268.263169,37.3291271 C273.27698,39.1714569 277.414707,41.0145878 277.414707,44.9403524 C277.414707,46.5423783 276.61899,50.6267435 270.013746,50.6267435 C262.693152,50.6267435 259.907347,45.4201592 259.11163,41.5744959 L257.599769,41.5744959 L257.599769,52.0693679 L259.11163,52.0693679 C259.270774,51.3484562 259.986919,49.6663289 260.782636,48.7836126 C262.612784,50.5474432 265.397793,52.388171 270.093317,52.388171 C277.33434,52.388171 281.234147,48.3831062 281.234147,42.93782 C281.234147,36.5281141 276.380275,33.8847713 270.013746,31.641935" id="Fill-14" fill="#F00000"></path>
                <path d="M300.567995,49.6663289 C295.793695,49.6663289 295.793695,44.6191462 295.793695,40.2135748 L295.793695,20.8274588 L305.422663,20.8274588 L305.422663,19.0652302 L295.793695,19.0652302 L295.793695,9.05176703 L294.519752,9.05176703 C293.326177,16.58209 289.108879,18.9050276 285.607725,19.0652302 L285.607725,20.8274588 L290.222882,20.8274588 L290.222882,41.5744959 C290.222882,46.3012734 291.177742,49.2658225 293.247401,50.8678484 C294.519752,51.9083643 296.271125,52.388171 298.498336,52.388171 C299.056134,52.388171 304.148721,52.388171 306.616238,47.1815867 L305.422663,46.460675 C304.705722,47.5027929 303.273432,49.6663289 300.567995,49.6663289" id="Fill-16" fill="#F00000"></path>
                <path d="M324.280195,19.545838 C331.124155,19.545838 332.157791,25.9547428 332.237363,29.7195038 L315.209024,29.7195038 C315.606883,25.3139325 317.994033,19.545838 324.280195,19.545838 L324.280195,19.545838 Z M338.206034,31.3215298 C337.967319,23.7111055 333.431733,17.7836095 324.439339,17.7836095 C314.889942,17.7836095 308.444636,25.3932327 308.444636,35.3265947 C308.444636,45.659662 315.844802,52.388171 324.757625,52.388171 C331.202931,52.388171 335.898455,49.1841191 337.887747,43.8982345 L336.057599,43.8982345 C333.829592,48.3038059 330.248071,50.3063383 325.792057,50.3063383 C318.072809,50.3063383 314.889942,43.8982345 314.889942,33.7245687 C314.889942,33.1638596 314.969514,32.0424415 315.049085,31.3215298 L338.206034,31.3215298 Z" id="Fill-18" fill="#F00000"></path>
                <path d="M364.623193,17.7834493 C360.564242,17.7834493 354.835082,20.2665895 352.36836,26.1948865 C352.36836,21.6283116 351.652215,19.06507 351.254356,17.7834493 L350.697355,17.9436519 C349.423412,18.3441584 345.285685,19.6257791 341.70496,20.1063869 L341.70496,21.8686154 C347.196201,21.8686154 347.196201,22.1898217 347.196201,31.0810657 L347.196201,40.1333133 C347.196201,49.0245573 347.196201,49.3457636 341.70496,49.3457636 L341.70496,51.1071911 L358.57495,51.1071911 L358.57495,49.3457636 L357.460947,49.3457636 C352.766218,49.3457636 352.766218,48.3036457 352.766218,40.1333133 L352.766218,32.6029903 C352.766218,24.431857 358.972809,20.5869947 362.155676,20.5869947 C363.98662,20.5869947 364.623193,22.1089193 364.94148,22.9908346 C365.41891,24.3525567 366.294994,25.5540762 368.044775,25.5540762 C369.71578,25.5540762 370.750212,24.1122528 370.750212,22.6704294 C370.750212,20.7471973 368.76092,17.7834493 364.623193,17.7834493" id="Fill-20" fill="#F00000"></path>
                <g id="Group-24" transform="translate(373.191153, 17.143921)">
                    <mask id="mask-4" fill="white">
                        <use xlink:href="#path-3"></use>
                    </mask>
                    <g id="Clip-23"></g>
                    <path d="M33.3664719,22.9892326 L33.3664719,11.1326385 C33.3664719,5.76665261 30.739811,0.639368557 23.4192169,0.639368557 C18.8032641,0.639368557 15.2225387,2.80210359 11.1643833,7.28777625 C11.0848117,5.60564901 10.766525,2.4816984 10.1299516,0.639368557 L9.09551981,0.639368557 C7.74280135,1.20007764 3.60507428,2.00109062 0.341839913,2.4816984 L0.341839913,4.24472796 C5.59436614,4.24472796 5.59436614,4.72453473 5.59436614,13.4563772 L5.59436614,22.9892326 C5.59436614,31.721075 5.59436614,32.2016828 0.341839913,32.2016828 L0.341839913,33.9631104 L16.4161139,33.9631104 L16.4161139,32.2016828 C11.1643833,32.2016828 11.1643833,31.6401727 11.1643833,22.9892326 L11.1643833,9.93111907 C13.8698203,6.88726977 16.8139722,3.04240748 21.3503534,3.04240748 C25.2493654,3.04240748 27.795659,5.36614613 27.795659,12.6553642 L27.795659,22.9892326 C27.795659,31.721075 27.795659,32.2016828 22.3052135,32.2016828 L22.3052135,33.9631104 L38.6182024,33.9631104 L38.6182024,32.2016828 C33.3664719,32.2016828 33.3664719,31.721075 33.3664719,22.9892326" id="Fill-22" fill="#ED1F24" mask="url(#mask-4)"></path>
                </g>
                <path d="M241.817045,44.5183788 C238.615081,47.3083069 234.285586,49.5247099 231.343026,49.5247099 C227.9668,49.5247099 226.322053,47.063197 226.322053,44.1074591 C226.322053,39.6762553 230.477286,35.6551702 237.228943,33.4395683 L241.817045,31.9625004 L241.817045,44.5183788 Z M249.708964,49.2483604 C247.241446,49.2483604 247.200069,47.4893359 247.200069,41.9751626 L247.200069,28.9979513 C247.200069,24.2719748 246.592142,17.7837697 235.610455,17.7837697 C227.652492,17.7837697 222.798619,21.8689359 222.798619,25.0729878 C222.798619,26.5148111 223.673908,27.3959254 224.947055,27.3959254 C227.015918,27.3959254 227.811635,25.8740007 228.289065,24.1117722 C228.846067,21.9490372 230.039642,19.5459982 235.133025,19.5459982 C241.101696,19.5459982 241.817045,23.3908605 241.817045,28.1168371 L241.817045,30.1193695 L235.769598,32.2020032 C224.549196,36.0476665 221.127614,40.5333392 221.127614,45.0999142 C221.127614,49.6664891 224.70834,51.9085245 229.324292,51.9085245 C233.143733,51.9085245 237.122317,50.3064985 241.817045,46.3014336 C242.214904,48.2238648 243.250131,51.9085245 247.916214,51.9085245 C252.292656,51.9085245 254.202376,48.8654762 254.36152,45.2593158 L252.92923,45.2593158 C252.291861,49.0192707 250.663028,49.2483604 249.708964,49.2483604 L249.708964,49.2483604 Z" id="Fill-25" fill="#F00000"></path>
            </g>
        </g>
    </g>
</svg>