<?xml version="1.0" encoding="UTF-8" standalone="no"?>
<svg width="20px" height="16px" viewBox="0 0 20 16" version="1.1" xmlns="http://www.w3.org/2000/svg" xmlns:xlink="http://www.w3.org/1999/xlink">
    <!-- Generator: Sketch 40.3 (33839) - http://www.bohemiancoding.com/sketch -->
    <title>twitter copy 2</title>
    <desc>Created with Sketch.</desc>
    <defs></defs>
    <g id="Page-1" stroke="none" stroke-width="1" fill="none" fill-rule="evenodd">
        <g id="Desktop-Copy-53" transform="translate(-883.000000, -831.000000)" fill="#000000">
            <g id="Group-2" transform="translate(-2.000000, 830.000000)">
                <path d="M904.402421,2.81835938 C903.682409,3.13378906 902.924502,3.34716797 902.109752,3.43994141 C902.943449,2.95751953 903.568723,2.1875 903.862412,1.27832031 C903.104505,1.72363281 902.242385,2.04833984 901.351845,2.22460938 C900.603411,1.48242188 899.570763,1 898.424429,1 C896.226498,1 894.45489,2.73486328 894.45489,4.88720703 C894.45489,5.19335938 894.473838,5.50878906 894.540155,5.78710938 C891.243259,5.61083984 888.325317,4.14501953 886.345285,1.78857422 C886.013701,2.36376953 885.805276,2.95751953 885.805276,3.68115234 C885.805276,5.01708984 886.50634,6.20458984 887.586358,6.90966797 C886.932663,6.89111328 886.326337,6.71484375 885.786329,6.42724609 L885.786329,6.47363281 C885.786329,8.36621094 887.160035,9.94335938 888.979012,10.2958984 C888.637954,10.3886719 888.277948,10.4350586 887.917942,10.4350586 C887.671622,10.4350586 887.425303,10.4072266 887.178983,10.3608398 C887.671622,11.9008789 889.159015,13.0512695 890.883254,13.0698242 C889.537968,14.1274414 887.804256,14.9160156 885.947384,14.9160156 C885.625273,14.9160156 885.312637,14.8974609 885,14.8510742 C886.75266,15.9550781 888.865326,16.4375 891.110626,16.4375 C898.424429,16.4375 902.422388,10.5 902.422388,5.35107422 L902.422388,4.84082031 C903.189769,4.29345703 903.862412,3.61621094 904.402421,2.81835938 L904.402421,2.81835938 Z" id="twitter-copy-2"></path>
            </g>
        </g>
    </g>
</svg>