<?xml version="1.0" encoding="UTF-8" standalone="no"?>
<svg width="52px" height="52px" viewBox="0 0 52 52" version="1.1" xmlns="http://www.w3.org/2000/svg" xmlns:xlink="http://www.w3.org/1999/xlink">
    <!-- Generator: Sketch 40.3 (33839) - http://www.bohemiancoding.com/sketch -->
    <title>Group 6</title>
    <desc>Created with Sketch.</desc>
    <defs></defs>
    <g id="Page-1" stroke="none" stroke-width="1" fill="none" fill-rule="evenodd">
        <g id="Desktop-Copy-46" transform="translate(-611.000000, -404.000000)">
            <g id="Page-1" transform="translate(612.000000, 405.000000)">
                <g id="Group-6">
                    <path d="M50,25 C50,38.807 38.807,50 25,50 C11.193,50 0,38.807 0,25 C0,11.193 11.193,0 25,0 C38.807,0 50,11.193 50,25" id="Fill-1" stroke="#000000" fill="#FEFEFE"></path>
                    <polygon id="Fill-3" fill="#221F20" points="9.1047 28.6729 9.1047 27.3579 13.1557 22.5389 9.1667 22.5389 9.1667 21.3269 14.8037 21.3269 14.8037 22.6429 10.7837 27.4609 14.8547 27.4609 14.8547 28.6729"></polygon>
                    <path d="M20.9006,22.8916 C20.6106,22.5806 20.1646,22.4046 19.7396,22.4046 C19.3156,22.4046 18.8696,22.5806 18.5796,22.8916 C18.0716,23.4196 18.0516,24.3316 18.0516,25.0046 C18.0516,25.6786 18.0716,26.5796 18.5796,27.1086 C18.8696,27.4186 19.3156,27.5956 19.7396,27.5956 C20.1646,27.5956 20.6106,27.4186 20.9006,27.1086 C21.4086,26.5796 21.4286,25.6786 21.4286,25.0046 C21.4286,24.3316 21.4086,23.4196 20.9006,22.8916 M21.8536,27.9786 C21.2946,28.5376 20.5276,28.8076 19.7396,28.8076 C18.9526,28.8076 18.1866,28.5376 17.6266,27.9786 C16.8286,27.1806 16.6936,26.2066 16.6936,25.0046 C16.6936,23.8036 16.8286,22.8186 17.6266,22.0216 C18.1866,21.4616 18.9526,21.1926 19.7396,21.1926 C20.5276,21.1926 21.2946,21.4616 21.8536,22.0216 C22.6516,22.8186 22.7866,23.8036 22.7866,25.0046 C22.7866,26.2066 22.6516,27.1806 21.8536,27.9786" id="Fill-5" fill="#221F20"></path>
                    <path d="M29.1003,22.8916 C28.8103,22.5806 28.3653,22.4046 27.9403,22.4046 C27.5153,22.4046 27.0703,22.5806 26.7803,22.8916 C26.2723,23.4196 26.2513,24.3316 26.2513,25.0046 C26.2513,25.6786 26.2723,26.5796 26.7803,27.1086 C27.0703,27.4186 27.5153,27.5956 27.9403,27.5956 C28.3653,27.5956 28.8103,27.4186 29.1003,27.1086 C29.6083,26.5796 29.6293,25.6786 29.6293,25.0046 C29.6293,24.3316 29.6083,23.4196 29.1003,22.8916 M30.0543,27.9786 C29.4953,28.5376 28.7283,28.8076 27.9403,28.8076 C27.1533,28.8076 26.3863,28.5376 25.8273,27.9786 C25.0293,27.1806 24.8943,26.2066 24.8943,25.0046 C24.8943,23.8036 25.0293,22.8186 25.8273,22.0216 C26.3863,21.4616 27.1533,21.1926 27.9403,21.1926 C28.7283,21.1926 29.4953,21.4616 30.0543,22.0216 C30.8513,22.8186 30.9863,23.8036 30.9863,25.0046 C30.9863,26.2066 30.8513,27.1806 30.0543,27.9786" id="Fill-7" fill="#221F20"></path>
                    <polygon id="Fill-9" fill="#221F20" points="39.6003 28.6729 39.6003 23.4299 37.6943 28.5689 36.7093 28.5689 34.8143 23.3679 34.8143 28.6729 33.5193 28.6729 33.5193 21.3269 35.3223 21.3269 37.2483 26.5599 39.1863 21.3269 40.8953 21.3269 40.8953 28.6729"></polygon>
                </g>
            </g>
        </g>
    </g>
</svg>